<svg id="Layer_1" data-name="Layer 1" xmlns="http://www.w3.org/2000/svg" width="64" height="64" viewBox="0 0 64 64"><defs><style>.cls-1{fill:#1d1d1b;}</style></defs><title>sience</title><path class="cls-1" d="M57.5,39.45A21.5,21.5,0,0,0,51,33.91s4.09-4.34,5.55-8.63S58.34,16,51.3,14.91,37,18.61,37,18.61a69.62,69.62,0,0,0-4.33-6.29c-2-2.46-7.25-7.12-11.5-3.87S17.67,21,17.67,21,7.05,19.24,5.13,24.45,17.25,37,17.25,37C13,41.7,9.21,49.86,9,51.82s-.58,5.29,5.63,4.79,16.58-7,16.58-7A61.9,61.9,0,0,0,37,54.74c3.5,2.75,6.8,1.42,8.88-1s1.58-7.33,1.58-7.33,6,.21,9-.84S59.88,42.78,57.5,39.45ZM50.09,19c3.41.62,4.41,5.12,3.37,8A32.59,32.59,0,0,1,50,33.16a64.26,64.26,0,0,0-6.21-3.42s-4-7.29-4.58-8.08C39.17,21.66,46.67,18.32,50.09,19Zm-5,20.58L46,44a18.51,18.51,0,0,1-5.45-.58S44.5,40.28,45.13,39.53Zm-6.25,3.58c-.13,0-11.29-3.2-11.63-3.33a56.26,56.26,0,0,1-3.83-6.67,88,88,0,0,1,8.83-7.33S41.09,29.32,42,30.2s2.88,8,2.88,8S39,43.07,38.88,43.11Zm5.5-11.62S48.59,34,48.8,34.24s-2.75,3-2.75,3S44.67,32,44.38,31.49ZM37.17,22.7a38.84,38.84,0,0,1,3.38,5.12s-5.71-2.37-7.13-2.71A30.93,30.93,0,0,1,37.17,22.7ZM23.55,15.2c2.87-1.92,5.62-.42,8,1.75s3.25,3,3.25,3l-5.25,3.83-8.25-2.37S20.67,17.11,23.55,15.2Zm-2.34,7.54,7.21,1.92L22.8,30.61A22,22,0,0,1,21.21,22.74Zm.7,11.52a26.69,26.69,0,0,0,1.94,4.22,19.16,19.16,0,0,1-4.06-1.63A10.59,10.59,0,0,1,21.91,34.26ZM8.55,29.45c-2.63-2.79-3.09-5-1.25-6.21s10.54-.83,10.54-.83a23.45,23.45,0,0,0,1.54,6.33c1.12,2.29,1.71,3.67,1.71,3.67s-2.54,2.83-2.88,3.37C18.21,35.78,11.17,32.24,8.55,29.45ZM19.07,54.23c-4.16,1.47-6.91,2-8,.69s-1.13-2.22,0-5.07,5.56-10.25,7.81-12.18a17.55,17.55,0,0,0,6.44,3,46.81,46.81,0,0,0,4.87,8.22A101.55,101.55,0,0,1,19.07,54.23Zm12.18-6.12c-.2-.08-3.12-5.29-2.75-6l8.34,2.58S35,46,33.59,46.86,31.46,48.2,31.25,48.11Zm12.59,6.17c-2.42,1.21-4.21,1.33-7.09-.83a27.45,27.45,0,0,1-4.7-4.54A47.44,47.44,0,0,0,38.21,45s3.09.71,5.25,1,3.13.42,3.13.42S46.25,53.07,43.84,54.28Zm10.91-13c-.83,2.33-1.66,2.71-3.45,2.83s-4,.09-4,.09-1-5-1.25-5.88c0,0,2.92-2.17,3.92-3.17C49.92,35.11,55.59,38.91,54.75,41.24ZM33.66,30.51c-7,4-2.75,9,0,10a6.22,6.22,0,0,0,6.84-1.66c1.5-1.72,2-5.12.5-6.68S36.15,29.1,33.66,30.51Zm6.74,5.15s-1.44-2.07-1.6-2-.9.5-.73.68,2,2.48,2,2.57-.31,1-.44.93S38,35.55,37.82,35.53s-.82.54-.67.71a14.29,14.29,0,0,1,1.75,2.33c-.15.11-.56.5-.69.44a22.57,22.57,0,0,0-1.66-2.15c-.25,0-.69.42-.61.55a10.08,10.08,0,0,1,1.19,1.91c-.13.11-.42.21-.52.15a21.07,21.07,0,0,0-1.31-1.83c-.19,0-.8.16-.77.43s.66,1.44.5,1.52-1.71-.1-3-1.83-1.09-3.71.87-5.37a5,5,0,0,1,5.63-.19c1.62,1.12,1.75,1.35,1.91,2A3.29,3.29,0,0,1,40.4,35.66Zm-6.52-2.61a9.25,9.25,0,0,0-1.4,3c0,.38.73.66.8.65s.29-.08.27-.5a2.7,2.7,0,0,1,.25-1s0,.35,0,.6a1.19,1.19,0,0,0,.29.73c.12.11.33,0,.52,0s0,.08.08-.77.94-1.69.86-2.1S34.17,33,33.88,33.05Z"/></svg>