<svg id="Layer_1" data-name="Layer 1" xmlns="http://www.w3.org/2000/svg" width="64" height="64" viewBox="0 0 64 64"><defs><style>.cls-1{fill:#1d1d1b;}</style></defs><title>gears</title><path class="cls-1" d="M33.58,41.39c1-.63,5.29-3.42,5.54-3.8S38,35,37.66,34.59,39,30.8,39,30.55s1.88.13,2.38.17.58,0,.75-.67a72.08,72.08,0,0,0,1-7.16C43,22,39.2,22,39.2,22s-.2-.75-.37-1.33-1.08-2.8-1.08-3,1.54-1.46,1.91-2-.87-1.42-1.91-2.59S33.45,9.22,33,9.26s-3.37,2.67-3.37,2.67-1.25-.13-2.88-.21a25.13,25.13,0,0,0-3.08.17c-.29-.05-.75-2.21-1.12-2.88s-2.92.54-5.5,1.79a13.75,13.75,0,0,0-4.63,3.34c-.21.41,1.5,2.87,1.5,2.87s-.46.21-1.33,2.08a12.64,12.64,0,0,0-1,3.84s-2.3,0-2.92.71.92,7.41,1.25,8.16,3.79-.37,3.79-.37A13,13,0,0,0,15,33.3a30.15,30.15,0,0,1,2.17,2.21,29,29,0,0,1-1.42,3.17c-.08.25.25.58,1.55,1.29a22.68,22.68,0,0,0,6.45,1.75c1.05,0,1.59-2.75,1.88-3.13s3.5.13,3.87.42,1.21,2.75,1.63,3.08S32.62,42,33.58,41.39Zm-4.67-7.8c-.12,0-.75.25-.71.5s1.17,2.67,1.05,2.67a4.59,4.59,0,0,1-1.05,0c-.2-.08-1.2-2.54-1.37-2.54s-.88,0-.83.37,1.2,2.09.83,2.09a8,8,0,0,0-2-.29c-.67.12-.92,1-1.21,1.37s-.5,1.63-.92,1.63-4.37-1.46-4.37-1.71,1.37-2.5,1-2.92a17.25,17.25,0,0,1-3.13-3.29c-1.33-2-1.41-2.5-1.83-2.46s-2.62,1-2.75.79-1.08-4.75-.67-4.87S13,25,13,24.76a16.74,16.74,0,0,1,1.5-5A28.05,28.05,0,0,0,16,17.34c.06-.2-1.25-2.33-1.09-2.7a10.91,10.91,0,0,1,2.71-2.09c1.17-.71,3.46-1.54,3.54-1.33s.92,2.71,1.3,2.67a23.39,23.39,0,0,1,4.41-.21c2,.12,3.17.41,3.38.25a29.85,29.85,0,0,1,2.5-2.25A38.56,38.56,0,0,1,37,15.51c-.09.13-2.42,1.88-2,2.63a9.24,9.24,0,0,1,1.79,3.25c.46,1.83.92,2.29,1,2.29S41,24,41,24.26a31.37,31.37,0,0,1-.66,4.25,14.33,14.33,0,0,0-2.67-.33c-.17.16-.75,1-.75,1A28.71,28.71,0,0,0,35,26.51c-.13,0-.88.5-.63.79a25.9,25.9,0,0,1,2.25,2.75A8.15,8.15,0,0,1,36,32.34c-.13,0-2.13-3.79-2.25-3.79s-.71.54-.63.67,2.54,4.54,2.54,4.54-.5,1.17-.29,1.54a10.76,10.76,0,0,1,1,1.88,2.16,2.16,0,0,1-.37.33s-3.38-6.79-3.71-6.83-.84.41-.71.58,3.71,6.58,3.58,6.75a5.76,5.76,0,0,1-1,.63s-3-6.09-3.12-6-.75.46-.67.71,3,5.79,2.92,5.92-.88.71-.88.58a10.89,10.89,0,0,0-1.29-2.58,3.71,3.71,0,0,0-.67-.33S29,33.59,28.91,33.59Zm-9.46-12c-.37.45-.87,1.2-1.08,3.37s.71,3.42,1,3.42a1.07,1.07,0,0,0,.79-1c0-.59-.41-.42-.58-1.75a5.07,5.07,0,0,1,.83-3C20.7,22,19.59,21.47,19.45,21.64Zm13.17,2.5c-.17-2-3-4.34-6.21-3.84-6.29,1-5.29,5.79-4.12,7.21a6.55,6.55,0,0,0,6.79,2.17A5,5,0,0,0,32.62,24.14Zm-3.37,3.08a3.27,3.27,0,0,1-4.5-.38c-1.42-1.29-1.5-3.79,1.87-4.66a4.14,4.14,0,0,1,3.29,1.29A2.94,2.94,0,0,1,29.25,27.22ZM55.54,20c-.21-.42-2.46-1.13-2.46-1.13a13.5,13.5,0,0,0,.17-1.45A4.76,4.76,0,0,0,53,15.47s1.45-.67,1.75-.83.08-1-.67-2.46-2-3.59-2.42-3.54S50,10.18,50,10.18a7.63,7.63,0,0,0-2-1.09,4.75,4.75,0,0,0-3,.09S44,8.05,43.79,7.8s-.79-.12-1.67.5A20.79,20.79,0,0,0,39,12.22c-.2.46,2,3.54,2,3.67s-1.75.75-2,.95-.08.8.34,2.5a3.57,3.57,0,0,0,1.54,2.46c.58.09.83-.79.71-1a30.81,30.81,0,0,1-1.34-3.12c0-.29,1.75-.88,2.25-1.33s-1.16-2.71-1.58-3.17-.67-.63.21-1.71a14.5,14.5,0,0,1,2.12-2,4.38,4.38,0,0,0,1.5,1c.84.29,1-.42,2.67-.29s1.75,1.5,2.54,1.46,1.29-1.17,1.34-1.3,2.16,3.59,2.16,3.59A14,14,0,0,0,51.08,15c-.08.21.46.71,1,1.71s-.21,3.12-.21,3.12l2.08.71s-1.71,2.59-2,2.84-1.2-.92-1.58-1.34-3.5,0-4.17,0-.16.71-.08,1.63-2,.21-2.46.25-.33,1-.12,1.46,3-.05,3.75-.34.25-1.46.16-1.62a9.79,9.79,0,0,1,2.25-.09,14.76,14.76,0,0,0,2.59,1.5c.66.17,1.87-2.5,2.21-2.95S55.75,20.39,55.54,20Zm-9.75-6.46a2.8,2.8,0,0,0-2.21,3.71,2.47,2.47,0,0,0,3,2c1.71-.38,1.92-1.67,2.25-3S48,13.13,45.79,13.51Zm1.75,3.42c-.42.79-.92,1.33-1.84,1s-1.41-2.33.67-2.67C47,15.2,48,16.14,47.54,16.93Zm0,2.75c-.88.37-.38.79.08.91s1,.09,2-.62.42-1.42.29-1.42-.37.71-1,1S47.85,19.56,47.58,19.68Zm.17,17.83a2.45,2.45,0,0,0-1.09-.71,12.87,12.87,0,0,0-3.29-.37c-.42,0,0-2.71-.46-3.25s-4.54.62-4.75.75,0,.79,0,1.16,1.38,1.59,1.38,1.59.08-1.42,0-1.84,1.75-.62,2-.62.13,2.5.17,3a1.11,1.11,0,0,0,1,1c.5.12,1-.46,2.45-.38a2.51,2.51,0,0,1,2.21,1.25c.21.34,3.46-1.41,3.67-1.41A15.48,15.48,0,0,1,52.75,41a14.53,14.53,0,0,1-2.59,1.71c-.28.18.17,1.07.3,1.31l-1.63-3a1.68,1.68,0,0,0-.71.42c-.25.29,2.08,3.42,2.08,3.42a6.27,6.27,0,0,1-.12,1.41c-.13.17-2-3.33-2.08-3.5s-.67.29-.75.42,2.5,4.08,2.5,4.08a7.66,7.66,0,0,1-.42,1.79,26.43,26.43,0,0,1-2-3.83c-.17-.42-.71.21-.83.63s3.16,6.29,3.33,6.62-.46.71-.62.71-2.92-5.13-3-5.33-1,.7-1,.7,3.08,5,3.33,5.25-.5.38-1,.59S44,49.05,43.83,49s-.71.46-.88.71,1.75,2.21,1.88,2.46-.92.37-1.17.45-1.46-2.08-1.58-2.45-.71,0-1,.29,1.25,1.87,1.33,2.21-2-.67-2.54-.63-1.75,2.25-2,2.5-3-1.62-3.29-1.79,1.17-1.75,1.46-2,0-.29-1.25-1.75a3.88,3.88,0,0,1-1.13-2.88,10.15,10.15,0,0,0-2.12-.33c-.21,0-.13-.88,0-1.17s1.21.42,1.54.42.29-.13.46-.54a7.43,7.43,0,0,1,1.71-2,55.5,55.5,0,0,1,5.37-3.59c.34-.12.13-.58-.21-.62A30.16,30.16,0,0,0,35,41a21.06,21.06,0,0,0-2.34,2.42A11.41,11.41,0,0,0,30.79,43c-.34,0-.54,3.08-.54,3.75s2.2.17,2.2.17A4.6,4.6,0,0,1,33,48.64a3.18,3.18,0,0,0,1.5,1.87s-1.92,1.71-1.88,2.25,5,3.29,5.46,3.54,2.42-2.79,2.42-2.79,1.21.25,2,.33a27,27,0,0,0,3.25-.16,19.94,19.94,0,0,0,1.83,2.5c.37.25,4.21-3.25,4.5-3.79s-1-2-1.42-2.38-.08-.58.63-2.33a12.44,12.44,0,0,0,.5-4.54s2-1.25,2.5-1.67S52,36.34,51.58,36.05,47.75,37.51,47.75,37.51ZM37,43.84c-.38-.12-.84.38-.84.59s.42,2.71,1,3.12,1.2-.16,1.41-.46-.21-.58-.62-1.29S37.31,43.94,37,43.84Zm2.79,2.42a4.2,4.2,0,0,0,4.37.08c1.21-.83,1.67-2.16.42-4.2a2.88,2.88,0,0,0-4-1.17C37,42.55,38.79,45.47,39.83,46.26Zm1.62-4.33a2,2,0,0,1,2.3,1c.7,1.25.5,2.33-.8,2.66a3.51,3.51,0,0,1-3.16-1A1.86,1.86,0,0,1,41.45,41.93Z"/></svg>