<?xml version="1.0" ?><!DOCTYPE svg  PUBLIC '-//W3C//DTD SVG 1.1//EN'  'http://www.w3.org/Graphics/SVG/1.1/DTD/svg11.dtd'><svg enable-background="new 0 0 100 100" height="100px" id="Calque_2" version="1.1" viewBox="0 0 100 100" width="100px" xml:space="preserve" xmlns="http://www.w3.org/2000/svg" xmlns:xlink="http://www.w3.org/1999/xlink"><g><polygon points="74.58,66.84 73.39,70.36 81.81,74.08 78.1,65.65  "/><path d="M21.4,18.64l4.97-4.98l-2.87-2.87c-0.66-0.66-1.55-1.03-2.49-1.03c-0.94,0-1.82,0.37-2.48,1.03   c-0.67,0.67-1.03,1.55-1.03,2.49c0,0.94,0.36,1.82,1.03,2.49L21.4,18.64z"/><polygon points="85.58,18.71 88.1,16.18 76.08,4.16 47.49,32.75 56.44,41.7 56.97,41.17 60.04,44.24 62.63,41.65 59.56,38.58    60.58,37.57 63.65,40.64 66.51,37.77 60.5,31.76 61.52,30.75 67.53,36.76 69.99,34.29 66.92,31.22 67.93,30.21 71.01,33.28    73.6,30.69 70.53,27.62 71.54,26.6 74.61,29.67 77.53,26.76 71.51,20.75 72.53,19.73 78.54,25.74 80.96,23.33 77.88,20.26    78.9,19.24 81.97,22.32 84.56,19.72 81.49,16.65 82.51,15.64  "/><polygon points="34.5,69.79 37.1,67.19 34.03,64.12 35.05,63.1 38.12,66.17 40.71,63.58 37.64,60.51 38.65,59.49 41.72,62.56    44.49,59.79 38.48,53.78 39.5,52.77 45.51,58.78 48.06,56.22 45,53.15 46.01,52.13 49.08,55.21 51.67,52.61 48.6,49.54    49.44,48.71 40.49,39.75 11.9,68.34 23.92,80.37 26.14,78.15 23.07,75.08 24.08,74.06 27.15,77.13 29.74,74.54 26.67,71.47    27.69,70.46 30.76,73.53 33.48,70.81 27.47,64.79 28.49,63.78  "/><polygon points="49.49,42.77 24.4,17.67 22.42,19.65 72.19,69.42 73.19,66.47 56.01,49.29  "/><polygon points="74.2,65.45 77.16,64.45 27.39,14.68 25.41,16.66  "/><path d="M68.48,79.01h1.539l-0.17-0.859c-0.42-2.16-1.26-4.19-2.5-6.03L66.86,71.4l-1.08,1.09c-0.931,0.92-2.431,0.92-3.36,0   c-0.92-0.931-0.92-2.44,0-3.36l1.09-1.09l-0.72-0.48c-1.84-1.239-3.87-2.079-6.04-2.5l-0.85-0.17v1.54c0,1.311-1.07,2.37-2.37,2.37   c-1.311,0-2.38-1.06-2.38-2.37v-1.54L50.3,65.06c-2.17,0.421-4.19,1.261-6.03,2.5l-0.73,0.48l1.09,1.09c0.92,0.93,0.92,2.43,0,3.36   c-0.93,0.92-2.43,0.92-3.36,0l-1.08-1.09l-0.49,0.72c-1.24,1.84-2.08,3.87-2.5,6.03l-0.17,0.859h1.54c1.31,0,2.37,1.061,2.37,2.37   c0,1.311-1.06,2.37-2.37,2.37h-1.54l0.17,0.86c0.42,2.159,1.26,4.189,2.5,6.029l0.49,0.73l1.08-1.09c0.93-0.931,2.43-0.931,3.36,0   c0.92,0.93,0.92,2.43,0,3.35l-1.09,1.09l0.72,0.49c1.84,1.23,3.87,2.07,6.04,2.5l0.851,0.16v-1.53c0-1.31,1.06-2.38,2.369-2.38   c1.311,0,2.381,1.07,2.381,2.38v1.53l0.85-0.16c2.17-0.43,4.2-1.27,6.03-2.5l0.729-0.49l-1.09-1.09c-0.92-0.92-0.92-2.43,0-3.35   c0.93-0.931,2.43-0.931,3.36,0l1.08,1.09l0.489-0.73c1.23-1.84,2.08-3.87,2.5-6.029l0.17-0.86H68.48c-1.311,0-2.37-1.06-2.37-2.37   C66.11,80.07,67.17,79.01,68.48,79.01z M60.18,81.38c0,3.67-2.989,6.66-6.649,6.66c-3.67,0-6.66-2.99-6.66-6.66   s2.99-6.649,6.66-6.649C57.19,74.73,60.18,77.71,60.18,81.38z"/></g></svg>