<?xml version="1.0" ?><svg viewBox="0 0 64 64" xmlns="http://www.w3.org/2000/svg"><g id="outline"><path d="M61,6H3A1,1,0,0,0,2,7V59a1,1,0,0,0,1,1H61a1,1,0,0,0,1-1V7A1,1,0,0,0,61,6ZM12.051,58A19.863,19.863,0,0,1,15.5,47.721l0,0,.386.22a32.086,32.086,0,0,0,4.652,2.167A43.085,43.085,0,0,0,17.263,58Zm4.673-11.881a20.008,20.008,0,0,1,11-6.646l-4.3,6.022c-.664.93-1.285,1.884-1.871,2.858a30.092,30.092,0,0,1-4.666-2.144ZM31,58H19.355a41.082,41.082,0,0,1,3.112-7.232A32.618,32.618,0,0,0,31,52.172Zm0-7.827a30.58,30.58,0,0,1-7.5-1.182c.489-.792,1-1.573,1.54-2.334l5.414-7.579c.179-.014.361-.018.541-.027ZM33,58V52.172a32.618,32.618,0,0,0,8.533-1.4A41.082,41.082,0,0,1,44.645,58Zm5.955-11.343c.543.761,1.051,1.542,1.54,2.334A30.628,30.628,0,0,1,33,50.173V39.051c.18.009.362.013.541.027Zm-2.674-7.184a20.008,20.008,0,0,1,11,6.646l-.157.09a30.185,30.185,0,0,1-4.666,2.144q-.879-1.461-1.87-2.858ZM46.737,58a43.085,43.085,0,0,0-3.278-7.888,32.1,32.1,0,0,0,4.653-2.167l.385-.22,0,0A19.863,19.863,0,0,1,51.949,58ZM60,58H53.975a22,22,0,0,0-43.95,0H4V16H60Zm0-44H4V8H60Z"/><rect height="2" width="2" x="6" y="10"/><rect height="2" width="2" x="10" y="10"/><rect height="2" width="2" x="14" y="10"/><path d="M28.058,25.636l-.61,3.047A1,1,0,0,0,28.8,29.808l2.2-.88v1.951h2V28.928l2.2.88a1,1,0,0,0,1.352-1.125l-.61-3.047,1.765-1.764a1,1,0,0,0-.464-1.677l-2.464-.616L32.85,18.473a1.04,1.04,0,0,0-1.7,0l-1.929,3.106-2.464.616a1,1,0,0,0-.464,1.677ZM30.1,23.421a1,1,0,0,0,.607-.442L32,20.9l1.293,2.083a1,1,0,0,0,.607.442l1.144.286-.894.894a1,1,0,0,0-.274.9l.353,1.761-1.857-.743a1.01,1.01,0,0,0-.744,0l-1.857.743.353-1.761a1,1,0,0,0-.274-.9l-.894-.894Z"/><path d="M42.84,32.119,42.3,34.8a1,1,0,0,0,.98,1.2.981.981,0,0,0,.372-.072l2.838-1.135,2.838,1.135A1,1,0,0,0,50.684,34.8l-.537-2.685L51.7,30.571a1,1,0,0,0-.465-1.677l-2.174-.544-1.713-2.757a1.039,1.039,0,0,0-1.7,0l-1.712,2.758-2.175.543a1,1,0,0,0-.464,1.677Zm1.971-1.927a1,1,0,0,0,.606-.442l1.077-1.734L47.57,29.75a1,1,0,0,0,.607.442l.855.214-.677.677a1,1,0,0,0-.273.9l.279,1.4-1.5-.6a.994.994,0,0,0-.743,0l-1.5.6.28-1.4a1,1,0,0,0-.273-.9l-.677-.677Z"/><path d="M13.853,32.119,13.316,34.8a1,1,0,0,0,1.352,1.124l2.838-1.135,2.838,1.135a.981.981,0,0,0,.372.072,1,1,0,0,0,.98-1.2l-.536-2.685,1.547-1.548a1,1,0,0,0-.464-1.677l-2.175-.543-1.712-2.758a1,1,0,0,0-1.7,0L14.944,28.35l-2.174.544a1,1,0,0,0-.465,1.677Zm1.97-1.927a1,1,0,0,0,.607-.442l1.076-1.734,1.077,1.734a1,1,0,0,0,.606.442l.855.214-.677.677a1,1,0,0,0-.273.9l.28,1.4-1.5-.6a.994.994,0,0,0-.743,0l-1.5.6.279-1.4a1,1,0,0,0-.273-.9l-.677-.677Z"/><rect height="2" width="2" x="31" y="33"/><rect height="2" width="2" x="56" y="10"/></g></svg>