<?xml version="1.0" encoding="UTF-8" standalone="no"?>
<svg
   width="45"
   height="45"
   viewBox="0 0 22.5 22.5"
   role="img"
   version="1.1"
   id="svg1"
   xmlns="http://www.w3.org/2000/svg"
   xmlns:svg="http://www.w3.org/2000/svg">
  <defs
     id="defs1" />
  <path
     d="M 19.094863,1.2125542 H 3.3805226 c -1.18298,0 -2.14283,0.95979 -2.14283,2.14271 V 19.069844 c 0,1.18291 0.95985,2.14271 2.14283,2.14271 H 19.094863 c 1.18298,0 2.14283,-0.9598 2.14283,-2.14271 V 3.3552642 c 0,-1.18292 -0.95985,-2.14271 -2.14283,-2.14271 z m -5.47768,17.1296398 c -0.37503,0.0653 -0.51352,-0.16532 -0.51352,-0.35728 0,-0.2412 0.008,-1.47336 0.008,-2.46884 0,-0.69648 -0.23217,-1.1382 -0.50449,-1.37036 1.65178,-0.18316 3.39274,-0.41105 3.39274,-3.26332 0,-0.81256 -0.29017,-1.2190798 -0.76341,-1.7411998 0.0758,-0.19196 0.3305,-0.9824 -0.0758,-2.00905 -0.62057,-0.19196 -2.04021,0.79901 -2.04021,0.79901 -0.58913,-0.16484 -1.22766,-0.24976 -1.857,-0.24976 -0.62954,0 -1.2678504,0.0854 -1.8571304,0.24976 0,0 -1.41965,-0.99097 -2.04022,-0.79901 -0.40629,1.02241 -0.15631,1.81257 -0.0758,2.00905 -0.47336,0.52212 -0.69651,0.9286398 -0.69651,1.7411998 0,2.8392 1.66525,3.08016 3.31702,3.26332 -0.21439,0.19196 -0.40635,0.52212 -0.47332,0.99548 -0.42411,0.19196 -1.50893,0.52212 -2.15624,-0.6206 -0.40615,-0.70553 -1.13828,-0.76333 -1.13828,-0.76333 -0.72324,-0.01 -0.0488,0.45529 -0.0488,0.45529 0.48207,0.22312 0.82149,1.0804 0.82149,1.0804 0.43292,1.32563 2.50434,0.8794 2.50434,0.8794 0,0.6206 0.008,1.62965 0.008,1.81256 0,0.19196 -0.13384,0.42412 -0.51334,0.35728 -2.94652,-0.98692 -5.00886,-3.79044 -5.00886,-7.06733 0,-4.0979898 3.13388,-7.2095498 7.2321504,-7.2095498 4.09806,0 7.41964,3.11156 7.41964,7.2095498 0.005,3.27689 -1.99553,6.08493 -4.94203,7.06733 z m -4.3794904,-2.72764 c -0.0848,0.0187 -0.16521,-0.02 -0.17407,-0.0754 -0.008,-0.0653 0.0488,-0.12473 0.13392,-0.1428 0.0848,-0.01 0.16517,0.0251 0.17418,0.0854 0.0137,0.058 -0.0447,0.11608 -0.13403,0.13377 z m -0.4241,-0.0402 c 0,0.0587 -0.0673,0.10705 -0.15626,0.10705 -0.0983,0.01 -0.16521,-0.0402 -0.16521,-0.10705 0,-0.0598 0.0673,-0.10753 0.15632,-0.10753 0.0848,-0.0101 0.16515,0.0402 0.16515,0.10753 z m -0.6116,-0.0502 c -0.0182,0.0584 -0.10766,0.0854 -0.18306,0.0584 -0.0848,-0.0189 -0.14284,-0.0854 -0.12498,-0.14287 0.0185,-0.058 0.10776,-0.0854 0.18302,-0.0653 0.0889,0.0251 0.14729,0.0945 0.12502,0.15175 z m -0.54914,-0.24121 c -0.0402,0.0502 -0.12501,0.0402 -0.19196,-0.0251 -0.0673,-0.0593 -0.0848,-0.1431 -0.0402,-0.18316 0.0402,-0.0502 0.12503,-0.0402 0.19198,0.0251 0.0583,0.0588 0.0804,0.14724 0.0402,0.18291 z m -0.40628,-0.40604 c -0.0402,0.0251 -0.11614,0 -0.16514,-0.0653 -0.0489,-0.0653 -0.0489,-0.14271 0,-0.17387 0.0488,-0.0402 0.12502,-0.01 0.16514,0.0579 0.049,0.0653 0.049,0.14739 0,0.18322 z m -0.29012,-0.43315 c -0.0402,0.0402 -0.1078,0.0188 -0.15629,-0.0251 -0.0488,-0.0599 -0.0581,-0.12506 -0.0171,-0.15622 0.0402,-0.0402 0.10776,-0.0199 0.15624,0.0251 0.0489,0.0591 0.0582,0.12511 0.0177,0.15628 z m -0.29912,-0.33016 c -0.0178,0.0402 -0.0758,0.0503 -0.12503,0.0185 -0.0584,-0.0251 -0.0848,-0.0754 -0.0673,-0.11609 0.0181,-0.0251 0.0673,-0.0402 0.12501,-0.0185 0.0583,0.0302 0.0848,0.0804 0.0673,0.11608 z"
     id="path1"
     style="stroke-width:0.0446423" />
</svg>
