<?xml version="1.0" encoding="UTF-8" standalone="no"?>
<!-- Created with Inkscape (http://www.inkscape.org/) -->

<svg
		width="11.90625mm"
		height="11.90625mm"
		viewBox="0 0 11.90625 11.90625"
		version="1.1"
		id="svg1"
		xml:space="preserve"
		xmlns="http://www.w3.org/2000/svg"
		xmlns:svg="http://www.w3.org/2000/svg">
	<defs id="defs1" />
	<g id="layer1" transform="translate(65.247298,-59.899162)"><g id="g17" transform="matrix(0.02413344,0,0,0.02413333,-64.614753,60.586197)"><g id="g1">
		<path d="M 421.981,16.562 C 410.941,5.519 397.711,0 382.298,0 H 56.248 C 40.83,0 27.604,5.521 16.561,16.562 5.52,27.6 0.001,40.828 0.001,56.243 V 382.29 c 0,15.413 5.518,28.644 16.56,39.683 11.043,11.04 24.272,16.563 39.687,16.563 h 326.046 c 15.41,0 28.644,-5.523 39.684,-16.563 11.043,-11.039 16.557,-24.27 16.557,-39.683 V 56.243 C 438.534,40.825 433.021,27.604 421.981,16.562 Z M 157.462,158.025 c 17.224,-16.652 37.924,-24.982 62.097,-24.982 24.36,0 45.153,8.33 62.381,24.982 17.228,16.655 25.837,36.785 25.837,60.386 0,23.598 -8.609,43.729 -25.837,60.379 -17.228,16.659 -38.014,24.988 -62.381,24.988 -24.172,0 -44.87,-8.336 -62.097,-24.988 -17.228,-16.652 -25.841,-36.781 -25.841,-60.379 0,-23.601 8.613,-43.73 25.841,-60.386 z m 231.403,212.564 c 0,4.945 -1.718,9.083 -5.141,12.416 -3.433,3.33 -7.519,4.996 -12.282,4.996 h -305.2 c -4.948,0 -9.091,-1.666 -12.419,-4.996 -3.333,-3.326 -4.998,-7.471 -4.998,-12.416 V 185.575 H 89.08 c -3.805,11.993 -5.708,24.462 -5.708,37.402 0,36.553 13.322,67.715 39.969,93.511 26.65,25.786 58.721,38.685 96.217,38.685 24.744,0 47.583,-5.903 68.527,-17.703 20.937,-11.807 37.486,-27.839 49.676,-48.112 12.183,-20.272 18.274,-42.4 18.274,-66.38 0,-12.94 -1.91,-25.406 -5.715,-37.402 h 38.547 V 370.59 h -0.002 z m 0,-254.963 c 0,5.52 -1.903,10.184 -5.716,13.99 -3.805,3.809 -8.466,5.711 -13.989,5.711 h -49.676 c -5.517,0 -10.185,-1.903 -13.99,-5.711 -3.806,-3.806 -5.708,-8.47 -5.708,-13.99 V 68.522 c 0,-5.33 1.902,-9.945 5.708,-13.848 3.806,-3.901 8.474,-5.854 13.99,-5.854 h 49.676 c 5.523,0 10.185,1.952 13.989,5.854 3.812,3.903 5.716,8.518 5.716,13.848 z" id="path1"/></g><g id="g2"></g><g id="g3"></g><g id="g4"></g><g id="g5"></g><g id="g6"></g><g	id="g7"></g><g id="g8"></g><g id="g9"></g><g id="g10"></g><g id="g11"></g><g id="g12"></g><g id="g13"></g><g id="g14"></g><g id="g15"></g><g id="g16"></g></g></g>
</svg>
