<?xml version="1.0" encoding="UTF-8" standalone="no"?>
<!-- Created with Inkscape (http://www.inkscape.org/) -->

<svg
   width="11.90625mm"
   height="11.90625mm"
   viewBox="0 0 11.90625 11.90625"
   version="1.1"
   id="svg1"
   xml:space="preserve"
   xmlns="http://www.w3.org/2000/svg"
   xmlns:svg="http://www.w3.org/2000/svg"><defs
     id="defs1" /><g
     id="layer1"
     transform="translate(65.247298,-59.899162)"><path
       d="m -63.020697,60.721976 c 0.0337,-8.6e-5 0.0674,-2.03e-4 0.10106,-3.35e-4 0.092,-2.96e-4 0.18396,-2.11e-4 0.27594,-5.9e-5 0.0994,1.02e-4 0.19887,-1.63e-4 0.2983,-3.74e-4 0.19457,-3.51e-4 0.38915,-3.74e-4 0.58372,-2.65e-4 0.15821,8.6e-5 0.31643,5.4e-5 0.47465,-5.7e-5 0.0338,-2.3e-5 0.0338,-2.3e-5 0.0683,-4.6e-5 0.0458,-3.2e-5 0.0916,-6.4e-5 0.13744,-9.4e-5 0.4293,-2.81e-4 0.85861,-1.72e-4 1.28791,6.6e-5 0.39235,2.02e-4 0.7847,-6.2e-5 1.17706,-5.54e-4 0.4033,-5.07e-4 0.8066,-7.02e-4 1.20991,-5.61e-4 0.22625,7.2e-5 0.45249,2.6e-5 0.67874,-3.36e-4 0.19262,-3.04e-4 0.38523,-3.19e-4 0.57784,4.3e-5 0.0982,1.72e-4 0.19635,2.18e-4 0.29453,-9.4e-5 0.0901,-2.88e-4 0.1801,-1.87e-4 0.27016,2.11e-4 0.0324,7.7e-5 0.0648,1.8e-5 0.0972,-1.95e-4 0.42735,-0.0027 0.78744,0.12472 1.10278,0.423312 0.10748,0.110196 0.1839,0.232816 0.25399,0.368809 0.0101,0.01929 0.0101,0.01929 0.0204,0.03897 0.11244,0.229529 0.12664,0.462886 0.12559,0.714135 8e-5,0.0337 2e-4,0.06739 3.3e-4,0.101085 3e-4,0.092 2.1e-4,0.183999 6e-5,0.276 -1e-4,0.09945 1.6e-4,0.198906 3.7e-4,0.298359 3.5e-4,0.194613 3.8e-4,0.389224 2.7e-4,0.583838 -9e-5,0.158248 -5e-5,0.316496 6e-5,0.474744 1e-5,0.02255 3e-5,0.04511 4e-5,0.06834 3e-5,0.04582 7e-5,0.09164 10e-5,0.137468 2.8e-4,0.42939 1.7e-4,0.858779 -7e-5,1.288169 -2e-4,0.392436 6e-5,0.78487 5.5e-4,1.177306 5.1e-4,0.403385 7.1e-4,0.80677 5.6e-4,1.210155 -7e-5,0.226297 -2e-5,0.452592 3.4e-4,0.678889 3e-4,0.192652 3.2e-4,0.385302 -4e-5,0.577955 -1.7e-4,0.0982 -2.2e-4,0.196392 9e-5,0.29459 2.9e-4,0.09007 1.9e-4,0.18014 -2.1e-4,0.270213 -8e-5,0.03241 -2e-5,0.06481 2e-4,0.09721 0.003,0.427439 -0.1247,0.787607 -0.42323,1.103007 -0.11017,0.107499 -0.23277,0.183935 -0.36873,0.25404 -0.0193,0.01008 -0.0193,0.01008 -0.039,0.02037 -0.22965,0.11255 -0.46303,0.126643 -0.7144,0.125475 -0.0337,7.1e-5 -0.0675,1.55e-4 -0.1012,3.11e-4 -0.0921,2.34e-4 -0.1842,1.56e-4 -0.2763,-6e-5 -0.0996,-1.56e-4 -0.19911,7.6e-5 -0.29867,2.34e-4 -0.1948,3.11e-4 -0.3896,2.34e-4 -0.5844,3.6e-5 -0.15837,-1.56e-4 -0.31673,-1.56e-4 -0.47509,-7.8e-5 -0.0226,1e-5 -0.0451,2e-5 -0.0684,2.9e-5 -0.0458,2e-5 -0.0917,4e-5 -0.13754,6.1e-5 -0.42959,1.56e-4 -0.85919,-2.7e-5 -1.28878,-3.9e-4 -0.36836,-3.12e-4 -0.73672,-2.34e-4 -1.10507,5.7e-5 -0.42809,3.12e-4 -0.85618,4.68e-4 -1.28428,2.34e-4 -0.0457,-2e-5 -0.0914,-3.9e-5 -0.13702,-5.9e-5 -0.0337,-1.4e-5 -0.0337,-1.4e-5 -0.0681,-2.8e-5 -0.15812,-5.3e-5 -0.31623,3.6e-5 -0.47434,1.55e-4 -0.19278,1.56e-4 -0.38555,1.56e-4 -0.57832,-2.33e-4 -0.0983,-1.56e-4 -0.19659,-2.34e-4 -0.29488,-2.2e-5 -0.0901,1.56e-4 -0.18018,7.8e-5 -0.27027,-2.34e-4 -0.0325,-6.9e-5 -0.065,-3.5e-5 -0.0974,7.8e-5 -0.25154,0.0011 -0.47895,-0.02763 -0.7044,-0.144773 -0.0139,-0.0071 -0.0278,-0.01429 -0.0422,-0.02165 -0.27236,-0.144828 -0.46223,-0.351055 -0.60245,-0.623121 -0.0101,-0.01929 -0.0101,-0.01929 -0.0204,-0.03897 -0.11245,-0.22953 -0.12665,-0.462887 -0.12559,-0.714136 -8e-5,-0.03369 -2.4e-4,-0.06739 -3.1e-4,-0.101085 -3.2e-4,-0.092 -2.4e-4,-0.183998 -6e-5,-0.276 7e-5,-0.09945 -1.6e-4,-0.198905 -3.9e-4,-0.298359 -3.9e-4,-0.194612 -3.9e-4,-0.389224 -2.4e-4,-0.583837 8e-5,-0.158249 6e-5,-0.316496 -5e-5,-0.474744 -2e-5,-0.02255 -3e-5,-0.04511 -5e-5,-0.06834 -3e-5,-0.04582 -6e-5,-0.09164 -8e-5,-0.137468 -3.1e-4,-0.42939 -1.5e-4,-0.85878 7e-5,-1.28817 2.3e-4,-0.392436 -6e-5,-0.78487 -5.5e-4,-1.177306 -5.4e-4,-0.403385 -7e-4,-0.806769 -5.4e-4,-1.210155 7e-5,-0.226297 2e-5,-0.452592 -3.2e-4,-0.678889 -3.1e-4,-0.192652 -3.1e-4,-0.385302 5e-5,-0.577954 1.5e-4,-0.0982 2.3e-4,-0.196393 -8e-5,-0.294591 -3.1e-4,-0.09007 -1.6e-4,-0.18014 2.3e-4,-0.270213 8e-5,-0.0324 2e-5,-0.06481 -1.5e-4,-0.09721 -0.003,-0.427438 0.12469,-0.787607 0.42322,-1.103006 0.11017,-0.1075 0.23277,-0.183935 0.36873,-0.25404 0.0129,-0.0067 0.0257,-0.01344 0.039,-0.02037 0.22948,-0.112469 0.46279,-0.126668 0.71399,-0.125614 z m 0.71505,2.270581 c -0.19548,0.224351 -0.24709,0.461395 -0.23175,0.749022 0.0225,0.23487 0.1707,0.435142 0.34601,0.582833 0.18475,0.136507 0.39797,0.204451 0.62755,0.181341 0.17365,-0.02801 0.30959,-0.08604 0.45383,-0.185694 0.0274,-0.01787 0.0274,-0.01787 0.0554,-0.03611 0.1811,-0.176248 0.29435,-0.412034 0.30169,-0.665403 -0.003,-0.26409 -0.11477,-0.475555 -0.29009,-0.665404 -0.3623,-0.348491 -0.91208,-0.292774 -1.26268,0.03941 z m 3.54261,2.240891 c -0.0581,0.06445 -0.1122,0.128514 -0.16036,0.200776 -9e-5,-0.01196 -1.7e-4,-0.02392 -2.6e-4,-0.03624 -6.8e-4,-0.05457 -0.002,-0.109086 -0.004,-0.163637 -1.2e-4,-0.01882 -2.4e-4,-0.03763 -3.6e-4,-0.05702 -0.003,-0.09609 -0.005,-0.141803 -0.0664,-0.219343 -0.0725,-0.05399 -0.10689,-0.06286 -0.19587,-0.06353 -0.0211,-2.34e-4 -0.0423,-3.9e-4 -0.0641,-6.23e-4 -0.0229,-7.8e-5 -0.0459,-1.56e-4 -0.0695,-2.34e-4 -0.0353,-1.56e-4 -0.0353,-1.56e-4 -0.0712,-3.9e-4 -0.0498,-1.56e-4 -0.0996,-3.12e-4 -0.14946,-3.9e-4 -0.0762,-2.34e-4 -0.15238,-8.42e-4 -0.22858,-0.0015 -0.0484,-1.56e-4 -0.0967,-2.34e-4 -0.14508,-3.12e-4 -0.0228,-2.34e-4 -0.0456,-5.46e-4 -0.0691,-7.8e-4 -0.0213,6.2e-5 -0.0427,1.56e-4 -0.0647,1.56e-4 -0.0187,-7.6e-5 -0.0374,-1.56e-4 -0.0567,-2.34e-4 -0.065,0.0093 -0.10312,0.03108 -0.15599,0.06948 -0.0515,0.07726 -0.0472,0.137423 -0.0469,0.226873 -1.1e-4,0.017 -2.2e-4,0.034 -3.2e-4,0.05151 -3.2e-4,0.05717 -3.3e-4,0.114327 -3.4e-4,0.171492 -1.6e-4,0.0409 -3.3e-4,0.08181 -5.2e-4,0.12271 -4.5e-4,0.111262 -6.3e-4,0.222525 -7.4e-4,0.333788 -8e-5,0.06947 -2.1e-4,0.138947 -3.5e-4,0.208421 -5.1e-4,0.24226 -7.8e-4,0.484519 -8.5e-4,0.726779 -8e-5,0.226001 -6.9e-4,0.451996 -0.002,0.677995 -7.1e-4,0.193888 -0.001,0.387773 -0.001,0.581661 -2e-5,0.115866 -2e-4,0.231725 -7.9e-4,0.34759 -5.4e-4,0.108963 -5.8e-4,0.217915 -2.6e-4,0.326878 4e-5,0.04001 -10e-5,0.08003 -4.2e-4,0.120047 -4.3e-4,0.05459 -2.1e-4,0.109144 1.7e-4,0.163734 -2.8e-4,0.01587 -5.5e-4,0.03175 -8.3e-4,0.0481 0.001,0.08274 0.0104,0.118238 0.0633,0.183298 0.0789,0.06203 0.13625,0.06513 0.23419,0.06594 0.0194,2.34e-4 0.0388,3.9e-4 0.0588,6.24e-4 0.0313,1.56e-4 0.0313,1.56e-4 0.0632,2.34e-4 0.0323,1.56e-4 0.0323,1.56e-4 0.0653,3.9e-4 0.0456,1.56e-4 0.0912,3.12e-4 0.13681,3.9e-4 0.0696,2.34e-4 0.13925,8.42e-4 0.20888,0.0015 0.0443,1.56e-4 0.0887,2.34e-4 0.13303,3.12e-4 0.0311,3.89e-4 0.0311,3.89e-4 0.0629,7.79e-4 0.11059,-3.12e-4 0.19259,-0.0044 0.28665,-0.06944 0.0539,-0.06 0.0696,-0.09767 0.0695,-0.177963 1.4e-4,-0.01908 2.8e-4,-0.03816 4.2e-4,-0.05782 -1.5e-4,-0.02079 -3.2e-4,-0.04158 -4.8e-4,-0.06301 8e-5,-0.02202 1.6e-4,-0.04404 2.3e-4,-0.06673 1.4e-4,-0.04787 1.3e-4,-0.09574 0,-0.143607 -1.9e-4,-0.07602 2e-5,-0.152037 3.4e-4,-0.228061 8.3e-4,-0.216174 8.6e-4,-0.432348 8.1e-4,-0.648525 0,-0.132272 4e-4,-0.264539 10e-4,-0.396811 2.1e-4,-0.07442 -3e-5,-0.148832 -2.9e-4,-0.223253 6e-4,-0.37878 0.0285,-0.760212 0.29914,-1.052854 0.18048,-0.156517 0.39001,-0.174505 0.61941,-0.160064 0.1667,0.02755 0.3035,0.09663 0.40685,0.232359 0.14869,0.232764 0.17373,0.47336 0.174,0.742987 10e-5,0.023 2.1e-4,0.046 3.2e-4,0.06969 2.2e-4,0.04976 4e-4,0.09952 5.4e-4,0.149279 2.4e-4,0.07874 6.5e-4,0.157472 0.001,0.236208 10e-4,0.223802 0.002,0.447602 0.003,0.671407 4.2e-4,0.137025 10e-4,0.274046 0.002,0.411069 3e-4,0.0522 4.7e-4,0.104408 5.4e-4,0.156613 1e-4,0.0729 5.7e-4,0.145788 0.001,0.218687 -6e-5,0.02159 -1.3e-4,0.04318 -1.9e-4,0.06542 5.5e-4,0.143138 5.5e-4,0.143138 0.0707,0.264972 0.0695,0.04632 0.0938,0.04671 0.17521,0.04759 0.0232,3.12e-4 0.0464,6.24e-4 0.0703,9.98e-4 0.0251,7.8e-5 0.0502,2.34e-4 0.076,3.12e-4 0.0258,1.56e-4 0.0515,3.9e-4 0.0781,5.46e-4 0.0546,3.12e-4 0.1091,4.68e-4 0.16366,5.46e-4 0.0698,7.8e-5 0.1395,8.89e-4 0.20926,0.0018 0.0667,7.8e-4 0.13339,7.88e-4 0.20008,9.12e-4 0.025,3.9e-4 0.05,8.04e-4 0.0757,0.0012 0.0233,-1.56e-4 0.0467,-2.34e-4 0.0707,-3.9e-4 0.0205,7.8e-5 0.0409,2.34e-4 0.062,3.12e-4 0.0845,-0.01894 0.1109,-0.04383 0.15976,-0.115846 0.0151,-0.08231 0.0137,-0.163469 0.0127,-0.246943 1.8e-4,-0.03757 1.8e-4,-0.03757 3.5e-4,-0.07589 2e-4,-0.06867 -6e-5,-0.137303 -5.5e-4,-0.205967 -4.1e-4,-0.07232 -2.9e-4,-0.144638 -2.4e-4,-0.216958 0,-0.121815 -4.1e-4,-0.243623 -10e-4,-0.365436 -7.6e-4,-0.139641 -9.4e-4,-0.279273 -8e-4,-0.418915 1.3e-4,-0.135272 -9e-5,-0.270541 -4.9e-4,-0.405812 -1.6e-4,-0.05704 -2.3e-4,-0.114079 -2e-4,-0.171119 -2.8e-4,-0.60631 -0.0128,-1.313104 -0.44289,-1.792531 -0.0133,-0.01516 -0.0265,-0.03032 -0.0402,-0.04594 -0.24143,-0.259254 -0.58862,-0.393516 -0.94042,-0.410508 -0.48108,-0.01368 -0.98384,0.02574 -1.33441,0.4001 z m -3.54342,-0.253143 c -0.0414,0.09654 -0.0472,0.186277 -0.0466,0.289809 -8e-5,0.01636 -1.6e-4,0.03273 -2.4e-4,0.04959 -2.3e-4,0.05464 -1.5e-4,0.109283 -5e-5,0.163928 -8e-5,0.03925 -1.5e-4,0.0785 -3.1e-4,0.117758 -3.1e-4,0.106486 -3.1e-4,0.212971 -2.3e-4,0.319458 2e-5,0.08891 -8e-5,0.177824 -1.6e-4,0.266737 -2.3e-4,0.209737 -2.3e-4,0.419474 -8e-5,0.629211 1.6e-4,0.216378 -1.5e-4,0.432754 -5.4e-4,0.649131 -3.9e-4,0.185811 -4.7e-4,0.371621 -3.9e-4,0.557433 3e-5,0.110963 -2e-5,0.221923 -3.1e-4,0.332885 -2.4e-4,0.104322 -2.4e-4,0.20864 5e-5,0.312961 4e-5,0.03828 -1e-5,0.07655 -1.6e-4,0.114831 -2.3e-4,0.05227 -5e-5,0.104523 2.3e-4,0.156791 -1.5e-4,0.01513 -3.1e-4,0.03026 -4.6e-4,0.04585 0.001,0.09639 0.0198,0.161836 0.0701,0.243963 0.0785,0.07346 0.15446,0.08495 0.25921,0.08585 0.0185,2.33e-4 0.037,3.89e-4 0.0561,6.23e-4 0.0298,1.56e-4 0.0298,1.56e-4 0.0602,2.34e-4 0.0206,1.56e-4 0.0412,2.34e-4 0.0624,3.9e-4 0.0436,1.56e-4 0.0871,3.12e-4 0.13072,3.9e-4 0.0664,2.34e-4 0.13281,8.42e-4 0.19923,0.0015 0.0424,1.56e-4 0.0848,2.34e-4 0.12719,3.12e-4 0.0197,2.34e-4 0.0395,5.46e-4 0.0599,7.8e-4 0.11673,-3.9e-4 0.20189,-0.0093 0.30331,-0.06944 0.0677,-0.08567 0.0707,-0.164794 0.0697,-0.269968 9e-5,-0.0167 1.9e-4,-0.0334 2.9e-4,-0.0506 2.5e-4,-0.0559 6e-5,-0.111786 -1.4e-4,-0.167685 9e-5,-0.0401 2e-4,-0.08019 3.3e-4,-0.120289 2.8e-4,-0.108874 1.7e-4,-0.217745 -2e-5,-0.326619 -1.6e-4,-0.113899 -1e-5,-0.227798 8e-5,-0.341697 1.1e-4,-0.191279 -3e-5,-0.382557 -3.2e-4,-0.573836 -3.4e-4,-0.221195 -2.3e-4,-0.442387 1e-4,-0.663583 2.9e-4,-0.189857 3.2e-4,-0.379715 1.6e-4,-0.569573 -9e-5,-0.113418 -1.1e-4,-0.226835 9e-5,-0.340253 1.8e-4,-0.106625 6e-5,-0.213245 -3e-4,-0.319869 -9e-5,-0.03915 -6e-5,-0.0783 8e-5,-0.117452 1.7e-4,-0.05341 -4e-5,-0.106798 -3.5e-4,-0.160204 1.4e-4,-0.01552 2.7e-4,-0.03105 4.2e-4,-0.04704 -10e-4,-0.09185 -0.0144,-0.149478 -0.0702,-0.222922 -0.096,-0.08687 -0.21693,-0.07118 -0.339,-0.07085 -0.0344,-1.56e-4 -0.0344,-1.56e-4 -0.0694,-3.12e-4 -0.0484,-1.56e-4 -0.0968,-7.8e-5 -0.14518,7.1e-5 -0.0739,1.56e-4 -0.14784,-3.9e-4 -0.22177,-0.0011 -0.0471,-3.4e-5 -0.0941,-2.1e-5 -0.14122,4e-5 -0.0331,-3.12e-4 -0.0331,-3.12e-4 -0.0668,-7.02e-4 -0.12066,0.0011 -0.20476,0.0049 -0.29554,0.09347 z"
       fill="#000000"
       id="path1"
       style="stroke-width:0.0206305" /></g>
</svg>
