<?xml version="1.0" encoding="UTF-8" standalone="no"?>
<svg
   version="1.1"
   id="mdi-web-box"
   width="45"
   height="45"
   viewBox="0 0 45 45"
   xmlns="http://www.w3.org/2000/svg"
   xmlns:svg="http://www.w3.org/2000/svg">
  <defs
     id="defs1" />
  <path
     d="m 16.179005,25.53488 h -5.266666 a 12.222222,12.222222 0 0 1 0,-6.222223 h 5.266666 a 25.688889,25.688889 0 0 0 -0.222222,3.111111 25.688889,25.688889 0 0 0 0.222222,3.111112 m -3.977778,-9.333334 h 4.533334 a 26.8,26.8 0 0 1 2.177778,-5.533334 12.333333,12.333333 0 0 0 -6.711112,5.533334 m 21.511112,0 a 12.422222,12.422222 0 0 0 -6.733334,-5.533334 24.333333,24.333333 0 0 1 2.155556,5.533334 m -6.177778,18.600001 a 21.111111,21.111111 0 0 0 2.977778,-6.155556 h -5.955556 a 21.111111,21.111111 0 0 0 2.977778,6.155556 m 0,-24.777779 a 21.177778,21.177778 0 0 0 -2.977778,6.177778 h 5.955556 A 21.177778,21.177778 0 0 0 22.956783,10.023768 M 12.201227,28.645991 a 12.466667,12.466667 0 0 0 6.711112,5.533334 26.8,26.8 0 0 1 -2.177778,-5.533334 M 42.956783,6.8682134 V 37.979325 a 4.4444444,4.4444444 0 0 1 -4.444444,4.444444 H 7.4012265 A 4.4444444,4.4444444 0 0 1 2.9567825,37.979325 V 6.8682134 A 4.4444444,4.4444444 0 0 1 7.4012265,2.4237698 H 38.512339 a 4.4444444,4.4444444 0 0 1 4.444444,4.4444436 M 38.512339,22.423768 A 15.555556,15.555556 0 1 0 22.956783,37.979325 15.555556,15.555556 0 0 0 38.512339,22.423768 m -8.555556,0 a 25.688889,25.688889 0 0 1 -0.222222,3.111112 h 5.266666 a 12.222222,12.222222 0 0 0 0,-6.222223 h -5.266666 a 25.688889,25.688889 0 0 1 0.222222,3.111111 m -2.977778,11.755557 a 12.488889,12.488889 0 0 0 6.733334,-5.533334 h -4.577778 a 24.333333,24.333333 0 0 1 -2.155556,5.533334 M 19.312339,19.312657 a 19.577778,19.577778 0 0 0 0,6.222223 h 7.288888 a 22.888889,22.888889 0 0 0 0.244445,-3.111112 22.688889,22.688889 0 0 0 -0.244445,-3.111111 z"
     id="path1"
     style="stroke-width:2.22222" />
</svg>
